<svg xmlns="http://www.w3.org/2000/svg" width="185.666" height="27.97" viewBox="0 0 185.666 27.97"><defs><style>.a,.b{fill:#fff;}.b{fill-rule:evenodd;}.c{fill:#0c1c37;}.d{fill:#d11c2b;}</style></defs><g transform="translate(-45.439 -18.414)"><g transform="translate(163.439 25.39)"><path class="a" d="M255.922,42.625c0-.1,0-.189.007-.28,0,.081-.007.162-.007.244Z" transform="translate(-246.741 -35.132)"/><path class="a" d="M246.586,32.236a4.656,4.656,0,0,1,1.965.411l.491-1.973a5.514,5.514,0,0,0-2.548-.493l-.147,0c-.085,0-.171,0-.26,0-3.131,0-5.648,2.088-5.648,5.869,0,3.156,1.842,5.558,5.418,5.558l.216,0c.063,0,.126,0,.191,0a6.47,6.47,0,0,0,2.64-.477l-.338-1.973a5.23,5.23,0,0,1-1.964.362c-2.073,0-3.3-1.4-3.3-3.617,0-2.467,1.442-3.667,3.284-3.667" transform="translate(-240.439 -30.18)"/><rect class="a" width="2.732" height="8.13" transform="translate(28.161 3.123)"/></g><g transform="translate(171.312 24.72)"><path class="a" d="M338.028,41.587a2.447,2.447,0,0,1-.351.127v-.02a4.967,4.967,0,0,1-1.1.123,2.035,2.035,0,0,1-2.057-2.253,2.022,2.022,0,0,1,2.011-2.253,4.261,4.261,0,0,1,1.46.231l.361-1.824a5.082,5.082,0,0,0-1.781-.313c-.049,0-.094.005-.142.007-.088,0-.177-.007-.264-.007a4.046,4.046,0,0,0-4.3,4.274,3.775,3.775,0,0,0,3.975,4.11c.082,0,.163,0,.244-.006.055,0,.108.008.163.008a5.017,5.017,0,0,0,2.087-.378l-.276-1.841-.034.014" transform="translate(-285.531 -31.637)"/><path class="b" d="M297.933,37.373V36.32a2.436,2.436,0,0,0-.03-.46,1.434,1.434,0,0,0-1.366-1.217c-1.074,0-1.612,1.019-1.612,2.285,0,1.366.63,2.221,1.6,2.221a1.409,1.409,0,0,0,1.365-1.2,3.427,3.427,0,0,0,.046-.576m2.785,3.619-1.543,0a.969.969,0,0,1-.991-.7,1.818,1.818,0,0,1-.286.28,2.54,2.54,0,0,1-.494.319,3.154,3.154,0,0,1-1.961.265c-1.633-.178-2.9-1.759-2.9-4.111-.014-2.278,1.1-3.756,2.519-4.171.074-.023.151-.043.228-.058a3.759,3.759,0,0,1,1.848.046,2.194,2.194,0,0,1,.777.385V30.228l0-1.179h2.743s0,0,0,.269v9.273c0,.9.031,1.859.062,2.4m-2.54-.693a2.437,2.437,0,0,1-.281.273,1.908,1.908,0,0,0,.281-.273m-.281.273a2.753,2.753,0,0,1-.494.319,2.54,2.54,0,0,0,.494-.319" transform="translate(-269.523 -29.049)"/><path class="a" d="M267.546,35.384h1.926a.609.609,0,0,1,.573.643v.111a2.7,2.7,0,0,1,.785-.592,1.249,1.249,0,0,1,.209-.09,2.633,2.633,0,0,1,.423-.125,3.384,3.384,0,0,1,1.7.03,2.375,2.375,0,0,1,.487.185c.9.464,1.486,1.505,1.486,3.194v4.752H273.21a.617.617,0,0,1-.6-.624V39.037c0-1.036-.337-1.744-1.182-1.744a1.3,1.3,0,0,0-1.2.937,1.911,1.911,0,0,0-.077.624v4.637h-2.546V38.016c0-1-.031-1.908-.062-2.631" transform="translate(-259.346 -31.568)"/><path class="a" d="M319.032,35.384h1.926a.609.609,0,0,1,.573.643v.111a2.687,2.687,0,0,1,.785-.592,1.22,1.22,0,0,1,.209-.09,2.621,2.621,0,0,1,.424-.125,3.381,3.381,0,0,1,1.7.03,2.371,2.371,0,0,1,.487.185c.9.464,1.487,1.505,1.487,3.194v4.752H324.7a.616.616,0,0,1-.6-.624V39.037c0-1.036-.337-1.744-1.182-1.744a1.3,1.3,0,0,0-1.2.937,1.928,1.928,0,0,0-.076.624v4.637h-2.547V38.016c0-1-.03-1.908-.062-2.631" transform="translate(-280.305 -31.568)"/><path class="b" d="M253.717,39.423v-.036c0-.1,0-.176.007-.253a3.981,3.981,0,0,1,1.919-3.473,3.92,3.92,0,0,1,.779-.335,4.755,4.755,0,0,1,3.411.192,3.878,3.878,0,0,1,2.129,3.549c.008.1.012.193.012.29v.037c0,.1,0,.177-.007.253a3.981,3.981,0,0,1-1.919,3.473,3.866,3.866,0,0,1-.779.335,4.751,4.751,0,0,1-3.411-.191,3.881,3.881,0,0,1-2.13-3.549c-.007-.1-.011-.193-.012-.291m4.156,2.382c-1,0-1.535-1.036-1.535-2.417,0-1.184.43-2.417,1.535-2.417,1.059,0,1.489,1.217,1.489,2.4,0,1.463-.567,2.433-1.489,2.433" transform="translate(-253.717 -31.51)"/><path class="a" d="M310.258,36.959c-.994-.011-1.4.965-1.459,1.629l2.793.031c0-.614-.248-1.648-1.334-1.66m2.167,4.707.345,1.736c-.061.018-.123.035-.185.051l-.133.033a7.393,7.393,0,0,1-3.534.005,3.583,3.583,0,0,1-1.7-.993c-.037-.039-.074-.078-.11-.118a1.254,1.254,0,0,1-.113-.144,4.463,4.463,0,0,1-.822-2.758,4.214,4.214,0,0,1,2.35-4.029,1.937,1.937,0,0,1,.291-.1c.1-.029.193-.055.293-.076a4.627,4.627,0,0,1,2.145.017c.091.022.18.048.266.077s.16.056.234.087c.029.012.058.021.089.033a3.973,3.973,0,0,1,1.956,3.8,6.344,6.344,0,0,1-.078,1l-4.921-.054c.063,1.048,1.269,1.559,2.371,1.572a4.782,4.782,0,0,0,1.255-.129" transform="translate(-275.07 -31.533)"/><path class="a" d="M345.787,36.954c-.994,0-1.4.981-1.459,1.646h2.793c0-.615-.248-1.646-1.334-1.646m2.167,4.683.345,1.733c-.062.018-.123.036-.186.053l-.133.034a7.393,7.393,0,0,1-3.534.044,3.532,3.532,0,0,1-1.7-.974c-.038-.037-.074-.076-.11-.117a1.283,1.283,0,0,1-.113-.143,4.423,4.423,0,0,1-.821-2.749,4.268,4.268,0,0,1,2.35-4.054,2.029,2.029,0,0,1,.291-.107c.095-.03.193-.058.293-.08a4.634,4.634,0,0,1,2.145-.006c.091.021.18.045.267.074s.159.055.234.085c.029.011.058.02.089.033a3.926,3.926,0,0,1,1.956,3.775,6.44,6.44,0,0,1-.078,1h-4.921c.062,1.048,1.269,1.546,2.37,1.546a4.784,4.784,0,0,0,1.256-.143" transform="translate(-289.533 -31.532)"/><path class="a" d="M280.717,34.87h-.349c-.026,0-.054,0-.085,0a.624.624,0,0,1-.6-.641l0-1.2h1.031l.007-.041v-.092a4.077,4.077,0,0,1,.664-2.276,2.967,2.967,0,0,1,1.731-1.071,4.271,4.271,0,0,1,.485-.077,3.75,3.75,0,0,1,.722.009c.534.058,1.016.079,1.431.082l1.583.007v1.429c0,.025,0,.053,0,.083,0,.365-.152.492-.27.536a1.816,1.816,0,0,1-.847-.026,4.672,4.672,0,0,0-2.073-.058,1.328,1.328,0,0,0-.7,1.356v.138l1.622-.014-.358,1.864h-1.252l0,6.281h-2.739Z" transform="translate(-264.286 -29.213)"/><path class="a" d="M328.345,55.482a2.374,2.374,0,0,1-.936.171,1.365,1.365,0,0,1-1.459-1.491,2.257,2.257,0,0,1,.764-1.738,2.059,2.059,0,0,1,1.363-.481,1.532,1.532,0,0,1,.78.171l-.144.358a1.484,1.484,0,0,0-.711-.149,1.546,1.546,0,0,0-1.032.4,1.915,1.915,0,0,0-.55,1.374,1.033,1.033,0,0,0,1.1,1.176,1.82,1.82,0,0,0,.77-.155Z" transform="translate(-283.121 -38.368)"/><path class="a" d="M332.239,55.592a6.684,6.684,0,0,1,.059-.668h-.011a1.13,1.13,0,0,1-1.005.727.764.764,0,0,1-.743-.855,1.8,1.8,0,0,1,1.791-1.85,2.667,2.667,0,0,1,.695.1l-.267,1.352a5.875,5.875,0,0,0-.107,1.2Zm.289-2.256a1,1,0,0,0-.31-.037A1.373,1.373,0,0,0,331,54.715c0,.289.1.572.444.572.369,0,.807-.481.936-1.171Zm-.08-1.411.369.764h-.331l-.23-.486h-.011l-.374.486h-.358l.62-.764Z" transform="translate(-284.989 -38.361)"/><path class="a" d="M335.038,56.293l.347-1.833c.053-.289.091-.54.117-.754h.391l-.069.487h.015a1.092,1.092,0,0,1,.909-.545.563.563,0,0,1,.6.578,1.108,1.108,0,0,1,.946-.578.618.618,0,0,1,.631.679,2.691,2.691,0,0,1-.043.438l-.289,1.529h-.433l.279-1.492a1.8,1.8,0,0,0,.037-.337c0-.272-.1-.449-.39-.449-.321,0-.706.374-.813.952l-.245,1.326H336.6l.289-1.518a1.7,1.7,0,0,0,.032-.315c0-.22-.059-.444-.385-.444s-.727.428-.829.978l-.24,1.3Z" transform="translate(-286.82 -39.062)"/><path class="a" d="M343.353,51.708l-.343,1.679h.011a1.088,1.088,0,0,1,.908-.529c.567,0,.781.47.781.93a1.711,1.711,0,0,1-1.609,1.775c-.455,0-.8-.187-.8-.663a2.062,2.062,0,0,1,.049-.406l.556-2.786Zm-.561,2.8a1.179,1.179,0,0,0-.032.331c0,.246.144.379.417.379.668,0,1.074-.8,1.074-1.374,0-.321-.139-.615-.492-.615-.385,0-.781.4-.909,1.005Z" transform="translate(-289.779 -38.273)"/><path class="a" d="M346.7,55.636l.5-2.588h.438l-.492,2.588Zm.829-3.026a.252.252,0,0,1-.251-.278.3.3,0,0,1,.294-.3.26.26,0,0,1,.262.278.293.293,0,0,1-.3.3Z" transform="translate(-291.566 -38.405)"/><path class="a" d="M349.654,56.352a.987.987,0,0,1-1.01-1.064,1.547,1.547,0,0,1,1.433-1.641.99.99,0,0,1,1.016,1.074,1.552,1.552,0,0,1-1.433,1.631Zm.059-.353c.524,0,.92-.674.92-1.278a.64.64,0,0,0-.6-.722c-.556,0-.925.679-.925,1.272,0,.422.235.727.6.727Z" transform="translate(-292.359 -39.062)"/></g><g transform="translate(45.439 18.414)"><path class="a" d="M139.871,46.384H47.6a2.162,2.162,0,0,1-2.162-2.162V20.576A2.162,2.162,0,0,1,47.6,18.414h92.27a2.162,2.162,0,0,1,2.162,2.162V44.222a2.162,2.162,0,0,1-2.162,2.162" transform="translate(-45.439 -18.414)"/><path class="c" d="M114.056,45.977H48.523a.877.877,0,0,1-.877-.878V21.5a.877.877,0,0,1,.877-.878h65.533a.878.878,0,0,1,.878.878V45.1a.878.878,0,0,1-.878.878" transform="translate(-46.337 -19.313)"/><path class="d" d="M187.868,45.977h-23.6a.877.877,0,0,1-.877-.878V21.5a.877.877,0,0,1,.877-.878h23.6a.878.878,0,0,1,.877.878V45.1a.878.878,0,0,1-.877.878" transform="translate(-93.454 -19.313)"/><path class="a" d="M94.2,45.078v6.808H92.837V45.078H90.488V43.862h6.064v1.215Z" transform="translate(-63.777 -28.773)"/><path class="a" d="M116.259,53.517h-1.308L112.73,47.87h1.4l1.493,4.143,1.493-4.143h1.354Z" transform="translate(-72.831 -30.405)"/><rect class="a" width="1.307" height="8.066" transform="translate(51.709 15.047)"/><path class="a" d="M149.639,53.517l-1.412-2.037L146.8,53.517h-1.481l2.152-2.87L145.4,47.87h1.539l1.331,1.921,1.354-1.921h1.493l-2.095,2.766,2.153,2.882Z" transform="translate(-86.099 -30.405)"/><path class="a" d="M101.831,47.8a1.99,1.99,0,0,0-1.348.541v-.509H99.349v5.648h1.308V51.023a4.785,4.785,0,0,1,.127-1.469c.133-.368.336-.653,1.365-.736l.129-1.048s-.138,0-.446.027" transform="translate(-67.384 -30.364)"/><path class="a" d="M106.05,52.467c-.891,0-1.1-.266-1.1-.752,0-.6.254-.741,1.052-.741h1.516c0,.983-.127,1.493-1.47,1.493m.324-4.756a9.168,9.168,0,0,0-1.535.073l-.125,1c.773-.042,1.539-.014,1.589-.012,1.128.046,1.153.446,1.194,1.138H106.05c-1.2,0-2.407.184-2.407,1.827,0,1.377.856,1.805,2.2,1.805a2.651,2.651,0,0,0,1.759-.555v.462h1.169V49.77c0-1.458-.886-2.006-2.4-2.06" transform="translate(-69.132 -30.337)"/><path class="a" d="M125.152,48.79c1.216,0,1.284.463,1.284,1.273h-2.545c0-.752.116-1.273,1.261-1.273m-.009,3.7c-.888-.031-1.175-.347-1.251-.91,0-.025-.007-.052-.008-.078l0-.04c-.008-.1-.012-.213-.012-.33h3.865c0-1.967-.116-3.413-2.58-3.413-2.267,0-2.592,1.3-2.592,2.985a3.974,3.974,0,0,0,.312,1.794,2.176,2.176,0,0,0,2.2,1.053h.119c.8,0,1.68-.059,2.132-.109l.146-1.047c-.773.042-1.449.126-2.327.1" transform="translate(-76.833 -30.341)"/><path class="a" d="M138.782,48.79c1.215,0,1.284.463,1.284,1.273h-2.545c0-.752.116-1.273,1.261-1.273m-.009,3.7c-.888-.031-1.175-.347-1.251-.91q-.005-.038-.009-.078l0-.04c-.008-.1-.012-.213-.012-.33h3.865c0-1.967-.116-3.413-2.58-3.413-2.268,0-2.592,1.3-2.592,2.985a3.974,3.974,0,0,0,.312,1.794,2.174,2.174,0,0,0,2.2,1.053h.12c.8,0,1.68-.059,2.131-.109l.147-1.047c-.773.042-1.449.126-2.327.1" transform="translate(-82.381 -30.341)"/><path class="a" d="M178.937,47.885a.727.727,0,0,0-.492.2V47.9h-.413v2.057h.477V49.06a1.73,1.73,0,0,1,.047-.535c.049-.134.122-.238.5-.268l.046-.382s-.05,0-.162.01" transform="translate(-99.414 -30.407)"/><path class="a" d="M197.93,48.257c.441,0,.466.168.466.461h-.923c0-.272.042-.461.457-.461m0,1.34c-.321-.011-.426-.126-.454-.33l0-.028v-.014c0-.037,0-.078,0-.12h1.4c0-.713-.042-1.237-.936-1.237-.822,0-.939.47-.939,1.082a1.442,1.442,0,0,0,.113.65.787.787,0,0,0,.8.381h.043c.288,0,.61-.021.773-.039l.053-.38a8.236,8.236,0,0,1-.844.035" transform="translate(-107.131 -30.403)"/><path class="a" d="M183.559,54.268c.441,0,.465.167.465.461H183.1c0-.272.042-.461.457-.461m0,1.339c-.322-.011-.426-.126-.454-.33l0-.028v-.014c0-.037,0-.078,0-.12h1.4c0-.713-.042-1.237-.936-1.237-.822,0-.939.469-.939,1.082a1.442,1.442,0,0,0,.113.65.787.787,0,0,0,.8.381h.043c.288,0,.61-.021.773-.039l.053-.38a8.243,8.243,0,0,1-.844.035" transform="translate(-101.281 -32.85)"/><path class="a" d="M171.136,49.971h-.476l-.421-1.6-.433,1.6h-.492l-.556-2.054h.467l.358,1.532L170,47.917h.463l.417,1.532.358-1.532h.459Z" transform="translate(-95.638 -30.424)"/><path class="a" d="M175.05,48.281c-.459,0-.5.177-.5.64s.042.64.5.64.5-.177.5-.64-.042-.64-.5-.64m.757,1.469a1.352,1.352,0,0,1-1.514,0,1.677,1.677,0,0,1,0-1.658,1.355,1.355,0,0,1,1.514,0,1.677,1.677,0,0,1,0,1.658" transform="translate(-97.802 -30.401)"/><rect class="a" width="0.476" height="2.933" transform="translate(80.09 16.614)"/><path class="a" d="M182.924,47.718c-.354,0-.43.147-.43.627s.076.627.43.627c.408,0,.526-.114.526-.627s-.118-.627-.526-.627m.564,1.65V49.2a.947.947,0,0,1-.623.2c-.821,0-.847-.555-.847-1.056,0-.619.118-1.065.8-1.065a.848.848,0,0,1,.623.185V46.434h.476v2.934Z" transform="translate(-101.037 -29.82)"/><path class="a" d="M188.238,49.971h-.476l-.421-1.6-.433,1.6h-.492l-.556-2.054h.467l.358,1.532.412-1.532h.463l.417,1.532.358-1.532h.459Z" transform="translate(-102.6 -30.424)"/><rect class="a" width="0.476" height="2.053" transform="translate(86.611 17.494)"/><path class="a" d="M194.014,47.718c-.354,0-.43.147-.43.627s.076.627.43.627c.407,0,.525-.114.525-.627s-.118-.627-.525-.627m.563,1.65V49.2a.947.947,0,0,1-.623.2c-.821,0-.847-.555-.847-1.056,0-.619.118-1.065.8-1.065a.85.85,0,0,1,.623.185V46.434h.476v2.934Z" transform="translate(-105.551 -29.82)"/><path class="a" d="M171.739,55.96V54.722c0-.257.017-.429-.315-.429-.459,0-.413.417-.413.719v.948h-.471V54.722c0-.257.012-.429-.32-.429-.458,0-.409.425-.409.728v.939h-.476V53.905h.413v.181a.761.761,0,0,1,.56-.215.7.7,0,0,1,.539.215.823.823,0,0,1,.618-.215.7.7,0,0,1,.69.358,1.189,1.189,0,0,1,.059.5V55.96Z" transform="translate(-95.873 -32.848)"/><path class="a" d="M175.848,54.292c-.458,0-.5.177-.5.64s.043.64.5.64.5-.177.5-.64-.042-.64-.5-.64m.758,1.469a1.353,1.353,0,0,1-1.515,0,1.677,1.677,0,0,1,0-1.658,1.356,1.356,0,0,1,1.515,0,1.681,1.681,0,0,1,0,1.658" transform="translate(-98.127 -32.848)"/><path class="a" d="M180.221,55.96V54.878c0-.4.038-.585-.374-.585-.513,0-.476.353-.476.711v.956H178.9V53.905h.413v.164a.856.856,0,0,1,.594-.2c.829,0,.8.522.8.968V55.96Z" transform="translate(-99.765 -32.848)"/><path class="a" d="M187.039,56.782h-.5l.349-.85-.783-2h.505l.526,1.477.5-1.477h.505Z" transform="translate(-102.7 -32.871)"/><rect class="a" width="0.476" height="0.476" transform="translate(86.611 16.732)"/></g></g></svg>